<svg width="24" height="20" viewBox="0 0 24 20" fill="none" xmlns="http://www.w3.org/2000/svg">
<g clip-path="url(#clip0_195_12576)">
<path d="M20.3302 2.22784C18.7563 1.49141 17.0912 0.968141 15.3789 0.671875C15.1656 1.05747 14.9165 1.57609 14.7446 1.98869C12.8985 1.71106 11.0693 1.71106 9.25715 1.98869C9.0854 1.57619 8.83059 1.05747 8.61534 0.671875C6.90139 0.96827 5.23486 1.49287 3.66018 2.23169C0.526681 6.96691 -0.322788 11.5844 0.1019 16.1365C2.18024 17.6885 4.19437 18.6314 6.17456 19.2483C6.66672 18.5716 7.10175 17.8551 7.47515 17.1063C6.76417 16.8356 6.07877 16.502 5.42709 16.1095C5.59857 15.9824 5.76603 15.8499 5.92921 15.7123C9.87815 17.5593 14.1689 17.5593 18.0708 15.7123C18.2347 15.849 18.4021 15.9814 18.5728 16.1095C17.9201 16.5031 17.2334 16.8373 16.521 17.1082C16.8966 17.8601 17.3308 18.5773 17.8216 19.2502C19.8036 18.6333 21.8196 17.6905 23.898 16.1365C24.3964 10.8595 23.0467 6.28441 20.3302 2.22784ZM8.01318 13.337C6.82771 13.337 5.85553 12.2303 5.85553 10.8827C5.85553 9.535 6.80699 8.42641 8.01318 8.42641C9.21937 8.42641 10.1916 9.53303 10.1708 10.8827C10.1727 12.2303 9.21946 13.337 8.01318 13.337ZM15.9867 13.337C14.8012 13.337 13.8291 12.2303 13.8291 10.8827C13.8291 9.535 14.7805 8.42641 15.9867 8.42641C17.193 8.42641 18.1651 9.53303 18.1444 10.8827C18.1444 12.2303 17.193 13.337 15.9867 13.337Z" fill="#5865F2"/>
</g>
<defs>
<clipPath id="clip0_195_12576">
<rect width="24" height="18.6562" fill="white" transform="translate(0 0.671875)"/>
</clipPath>
</defs>
</svg>
