<svg width="24" height="24" viewBox="0 0 24 24" fill="none" xmlns="http://www.w3.org/2000/svg">
<g clip-path="url(#clip0_195_12572)">
<path d="M12 0C8.81812 0 5.76375 1.26506 3.51562 3.51469C1.2652 5.76522 0.000643966 8.81734 0 12C0 15.1813 1.26562 18.2357 3.51562 20.4853C5.76375 22.7349 8.81812 24 12 24C15.1819 24 18.2362 22.7349 20.4844 20.4853C22.7344 18.2357 24 15.1813 24 12C24 8.81869 22.7344 5.76431 20.4844 3.51469C18.2362 1.26506 15.1819 0 12 0Z" fill="url(#paint0_linear_195_12572)"/>
<path d="M5.43184 11.8732C8.93059 10.3492 11.2631 9.3445 12.4293 8.859C15.7631 7.47281 16.455 7.23206 16.9068 7.2239C17.0062 7.22231 17.2275 7.24687 17.3718 7.36359C17.4918 7.46203 17.5256 7.59515 17.5425 7.68862C17.5575 7.782 17.5781 7.99481 17.5612 8.16093C17.3812 10.0584 16.5993 14.6631 16.2018 16.7884C16.035 17.6876 15.7031 17.9891 15.3825 18.0186C14.685 18.0827 14.1562 17.5581 13.4812 17.1157C12.4256 16.4233 11.8293 15.9924 10.8037 15.3169C9.61872 14.5361 10.3875 14.1069 11.0625 13.4057C11.2387 13.2221 14.31 10.4293 14.3681 10.176C14.3756 10.1443 14.3831 10.0262 14.3118 9.96393C14.2425 9.9015 14.1393 9.92287 14.0643 9.93975C13.9575 9.96375 12.2718 11.079 9.00184 13.2853C8.52372 13.6142 8.09059 13.7745 7.70059 13.7661C7.27309 13.7569 6.44809 13.5238 5.83497 13.3247C5.08497 13.0804 4.48684 12.9512 4.53934 12.5362C4.56559 12.3202 4.86372 12.0992 5.43184 11.8732Z" fill="white"/>
</g>
<defs>
<linearGradient id="paint0_linear_195_12572" x1="1200" y1="0" x2="1200" y2="2400" gradientUnits="userSpaceOnUse">
<stop stop-color="#2AABEE"/>
<stop offset="1" stop-color="#229ED9"/>
</linearGradient>
<clipPath id="clip0_195_12572">
<rect width="24" height="24" fill="white"/>
</clipPath>
</defs>
</svg>
