<svg width="18" height="16" viewBox="0 0 18 16" fill="none" xmlns="http://www.w3.org/2000/svg">
<path d="M16.3707 7.98867L17.1526 7.07082L16.8126 6.82153L17.3566 6.32295L16.9373 6.00567L17.4812 5.59773L17.1299 5.32578L17.6965 2.56091L16.8353 0M16.8353 0L11.3056 2.05099H6.69367L1.16392 0L0.302734 2.56091L0.880638 5.32578L0.518032 5.59773L1.07327 6.00567L0.654009 6.32295L1.19792 6.82153L0.857975 7.07082L1.63985 7.98867L0.450043 11.6601L1.54919 15.4108L5.41322 14.3456L6.16109 14.9575L7.69084 16H10.3084L11.8381 14.9575L12.586 14.3456L16.4614 15.4108L17.5719 11.6601L16.3707 7.98867" fill="#F5841F"/>
<path d="M16.8354 0L10.0479 4.99717L11.3056 2.05099L16.8354 0Z" fill="#E27625"/>
<path d="M1.16406 0L7.89494 5.04249L6.69381 2.05099L1.16406 0Z" fill="#E27625"/>
<path d="M14.399 11.5921L12.5859 14.3343L16.4613 15.3994L17.5718 11.6487L14.399 11.5921Z" fill="#E27625"/>
<path d="M0.450195 11.6487L1.54935 15.3994L5.41337 14.3343L3.61167 11.5921L0.450195 11.6487Z" fill="#E27625"/>
<path d="M5.2093 6.94617L4.13281 8.56656L7.96284 8.73653L7.83819 4.63455L5.2093 6.94617Z" fill="#E27625"/>
<path d="M12.8014 6.94614L10.1272 4.5892L10.0479 8.73651L13.8779 8.56654L12.8014 6.94614Z" fill="#E27625"/>
<path d="M5.41309 14.3342L7.73603 13.2238L5.73037 11.6827L5.41309 14.3342Z" fill="#E27625"/>
<path d="M10.2744 13.2238L12.586 14.3342L12.2687 11.6827L10.2744 13.2238Z" fill="#E27625"/>
<path d="M12.586 14.3343L10.2744 13.2238L10.467 14.7196L10.4444 15.3541L12.586 14.3343Z" fill="#D7C1B3"/>
<path d="M5.41309 14.3343L7.56606 15.3541L7.55473 14.7196L7.73603 13.2238L5.41309 14.3343Z" fill="#D7C1B3"/>
<path d="M7.60056 10.6856L5.68555 10.1303L7.04532 9.50708L7.60056 10.6856Z" fill="#2F343B"/>
<path d="M10.3994 10.6856L10.966 9.50708L12.3258 10.1303L10.3994 10.6856Z" fill="#2F343B"/>
<path d="M5.41303 14.3343L5.75297 11.5921L3.61133 11.6487L5.41303 14.3343Z" fill="#CC6228"/>
<path d="M12.2578 11.5921L12.5864 14.3343L14.3995 11.6487L12.2578 11.5921Z" fill="#CC6228"/>
<path d="M13.8779 8.56659L10.0479 8.73656L10.3991 10.6856L10.9657 9.5071L12.3255 10.1303L13.8779 8.56659Z" fill="#CC6228"/>
<path d="M5.68522 10.1303L7.04499 9.5071L7.60023 10.6856L7.96284 8.73656L4.13281 8.56659L5.68522 10.1303Z" fill="#CC6228"/>
<path d="M4.13281 8.56659L5.73055 11.6827L5.68522 10.1303L4.13281 8.56659Z" fill="#E27625"/>
<path d="M12.3252 10.1303L12.2686 11.6827L13.8776 8.56659L12.3252 10.1303Z" fill="#E27625"/>
<path d="M7.96319 8.73654L7.60059 10.6856L8.05384 12.9972L8.15583 9.96034L7.96319 8.73654Z" fill="#E27625"/>
<path d="M10.0481 8.73654L9.85547 9.94901L9.94612 12.9972L10.3994 10.6856L10.0481 8.73654Z" fill="#E27625"/>
<path d="M10.3986 10.6856L9.94531 12.9972L10.2739 13.2238L12.2683 11.6827L12.3249 10.1303L10.3986 10.6856Z" fill="#F5841F"/>
<path d="M5.68555 10.1303L5.73087 11.6827L7.73654 13.2238L8.05382 12.9972L7.60056 10.6856L5.68555 10.1303Z" fill="#F5841F"/>
<path d="M10.4442 15.3541L10.4669 14.7195L10.2856 14.5722H7.71337L7.55473 14.7195L7.56606 15.3541L5.41309 14.3343L6.16096 14.9462L7.69071 16H10.3083L11.838 14.9462L12.5859 14.3343L10.4442 15.3541Z" fill="#C0AD9E"/>
<path d="M10.2742 13.2238L9.94562 12.9971H8.05327L7.73599 13.2238L7.55469 14.7195L7.71333 14.5722H10.2856L10.4669 14.7195L10.2742 13.2238Z" fill="#2F343B"/>
<path d="M17.1299 5.32578L17.6965 2.56091L16.8353 0L10.2744 4.8272L12.8013 6.94618L16.3707 7.98867L17.1526 7.07082L16.8127 6.82153L17.3566 6.33428L16.9373 6.00567L17.4812 5.59773L17.1299 5.32578Z" fill="#763E1A"/>
<path d="M0.302734 2.56091L0.880638 5.32578L0.518032 5.59773L1.06194 6.017L0.642678 6.33428L1.18659 6.82153L0.846644 7.07082L1.63985 7.98867L5.20925 6.94618L7.73616 4.8272L1.16392 0L0.302734 2.56091Z" fill="#763E1A"/>
<path d="M16.3705 7.98872L12.8011 6.94623L13.8776 8.56662L12.2686 11.6828L14.3989 11.6488H17.5717L16.3705 7.98872Z" fill="#F5841F"/>
<path d="M5.2094 6.94623L1.64 7.98872L0.450195 11.6488H3.61167L5.73065 11.6828L4.13292 8.56662L5.2094 6.94623Z" fill="#F5841F"/>
<path d="M10.0475 8.73655L10.2741 4.8272L11.3053 2.05099H6.69336L7.73585 4.8272L7.96248 8.73655L8.05313 9.96034V12.9972H9.94548L9.95682 9.96034L10.0475 8.73655Z" fill="#F5841F"/>
</svg>
